<?xml version="1.0" encoding="utf-8"?>
<!-- Generator: Adobe Illustrator 17.0.0, SVG Export Plug-In . SVG Version: 6.00 Build 0)  -->
<!DOCTYPE svg PUBLIC "-//W3C//DTD SVG 1.1//EN" "http://www.w3.org/Graphics/SVG/1.1/DTD/svg11.dtd">
<svg version="1.1" id="Layer_1" xmlns="http://www.w3.org/2000/svg" xmlns:xlink="http://www.w3.org/1999/xlink" x="0px" y="0px"
	 width="256px" height="256px" viewBox="0 0 256 256" enable-background="new 0 0 256 256" xml:space="preserve">
<g id="Layer_2" display="none">
	<path display="inline" fill="#EA6D28" stroke="#FF9D00" stroke-width="7" stroke-miterlimit="10" d="M237.833,195.279
		c0,23.695-19.209,42.904-42.904,42.904H61.07c-23.695,0-42.904-19.209-42.904-42.904V61.419c0-23.695,19.209-42.904,42.904-42.904
		h133.86c23.695,0,42.904,19.209,42.904,42.904L237.833,195.279L237.833,195.279z"/>
</g>
<g id="Layer_4">
	<path fill="none" stroke="#FFCD00" stroke-width="4" stroke-miterlimit="10" d="M86.908,169.085
		c4.301-3.743,5.708-9.814,8.83-14.508c3.889-5.848,10.049-11.535,15.35-16.12c-6.877,18.899-18.623,36.587-27.192,54.808
		c-1.166,2.479-2.237,5.27-1.564,8.056c0.943,3.9,5.149,5.848,8.562,3.547c4.584-3.09,7.177-11.563,9.446-16.439
		c5.182-11.137,11.09-22.048,16.589-33.046c2.209-4.419,4.302-11.641,8.175-14.83c1.663-1.369,4.107-1.589,6.134-2.096
		c7.555,18.148,17.604,35.606,26.399,53.196c2.222,4.444,6.14,16.246,13.06,13.986c7.891-2.578,1.739-12.867-0.432-17.21
		c-8.307-16.615-15.963-33.932-25.324-49.972c5.802,4.087,12.254,10.216,16.241,16.12c2.857,4.231,4.554,9.283,7.133,13.702
		c4.765-2.222,8.466-6.695,12.058-10.478c1.689-1.78,3.914-3.886,4.281-6.447c0.394-2.744-1.852-4.288-2.528-6.678
		c-0.582-2.059,0.625-4.356,1.413-6.214c2.005-4.728,5.691-3.401,8.469-6.708c1.869-2.226,1.292-5.919,1.292-8.61V107.83
		c-0.005-2.294,0.297-5.11-1.292-6.998c-1.687-2.004-4.401-1.84-6.768-1.868c-0.546-3.172-2.806-6.499-2.787-9.672
		c0.018-2.911,2.995-5.027,2.213-8.06c-0.585-2.27-2.693-4.039-4.266-5.642c-4.29-4.373-10.177-12.869-16.116-14.812
		c-3.008-0.984-4.932,1.382-7.718,1.648c-2.144,0.205-4.908-1.269-6.774-2.194c-4.036-1.999-3.219-6.415-6.647-8.566
		c-2.266-1.421-5.328-1.061-7.876-1.062c-6.175-0.003-14.14-1.341-20.114,0.256c-3.679,0.984-3.143,4.16-4.881,6.774
		c-1.447,2.176-4.889,3.284-7.244,4.142c-4.101,1.493-6.605-1.853-10.478-1.197c-2.646,0.448-4.633,2.756-6.448,4.537
		c-4.487,4.403-10.764,9.095-14.009,14.504c-2.17,3.617,0.851,5.543,1.72,8.866c0.447,1.71-0.243,3.254-0.82,4.836
		c-0.725,1.99-1.346,4.405-3.235,5.623c-1.96,1.263-4.741,0.663-6.202,2.787c-1.389,2.019-0.828,5.399-0.828,7.71v14.508
		c0,2.232-0.407,5.041,0.486,7.147c1.375,3.239,4.862,2.509,7.35,4.148c1.903,1.253,3.166,4.281,3.696,6.425
		c0.944,3.822-3.429,5.899-2.886,9.685c0.368,2.561,2.592,4.668,4.282,6.447C79.31,161.651,83.155,165.332,86.908,169.085
		 M125.596,66.724v20.15c0,2.438,0.694,6.317-0.829,8.414c-1.524,2.101-7.188,4.467-9.649,3.546
		c-2.509-0.939-4.583-3.618-6.375-5.501c-4.38-4.602-10.286-9.573-12.968-15.326C104.734,71.591,114.355,66.817,125.596,66.724
		 M161.06,78.008c-2.802,6.01-9.051,10.672-13.702,15.314c-1.82,1.816-3.897,4.607-6.448,5.399
		c-2.346,0.728-7.446-1.397-8.843-3.392c-1.506-2.149-0.829-5.978-0.829-8.455v-20.15C142.786,66.962,151.683,71.832,161.06,78.008
		 M90.132,83.65c4.208,1.963,7.223,5.611,10.478,8.866c5.475,5.475,14.185,11.867,6.453,19.664c-1.636,1.65-4.332,1.288-6.453,1.292
		H86.102c-1.878-0.004-5.112,0.481-6.394-1.292c-1.33-1.841-0.113-5.569,0.311-7.574C81.689,96.711,85.66,90.23,90.132,83.65
		 M177.986,113.471h-17.732c-2.735,0-6.101,0.515-8.75-0.256c-3.128-0.91-6.04-7.238-4.845-10.222
		c1.016-2.537,3.654-4.563,5.535-6.448c4.14-4.148,8.71-8.097,12.09-12.896C173.707,88.244,177.571,103.816,177.986,113.471
		 M78.848,119.919c5.764-1.704,12.552-0.806,18.538-0.806c2.375,0,5.621-0.538,7.836,0.486c2.452,1.133,4.805,7.27,4.592,9.855
		c-0.173,2.101-2.2,3.628-3.577,5.004l-9.625,9.625c-1.332,1.332-3.293,4.037-5.504,3.439c-2.342-0.633-4.101-3.947-5.278-5.842
		C81.575,134.829,80.314,127.7,78.848,119.919 M177.986,119.919c-2.315,11.223-6.074,19.353-12.09,29.016
		c-5.69-2.653-10.146-8.453-14.504-12.896c-1.758-1.791-4.13-3.785-4.414-6.448c-0.351-3.276,2.058-7.278,2.798-10.478
		C158.612,119.113,169.501,117.411,177.986,119.919 M115.924,174.727h24.18c-1.124-8.632-5.131-9.675-12.896-9.672
		c-2.083,0.001-4.928-0.437-6.741,0.829C117.941,167.647,116.731,171.922,115.924,174.727z"/>
</g>
</svg>
