<?xml version="1.0" encoding="utf-8"?>
<!-- Generator: Adobe Illustrator 17.0.0, SVG Export Plug-In . SVG Version: 6.00 Build 0)  -->
<!DOCTYPE svg PUBLIC "-//W3C//DTD SVG 1.1//EN" "http://www.w3.org/Graphics/SVG/1.1/DTD/svg11.dtd">
<svg version="1.1" id="Layer_1" xmlns="http://www.w3.org/2000/svg" xmlns:xlink="http://www.w3.org/1999/xlink" x="0px" y="0px"
	 width="256px" height="256px" viewBox="0 0 256 256" enable-background="new 0 0 256 256" xml:space="preserve">
<g id="Layer_2" display="none">
	<path display="inline" fill="#EA6D28" stroke="#FF9D00" stroke-width="7" stroke-miterlimit="10" d="M237.833,195.279
		c0,23.695-19.209,42.904-42.904,42.904H61.07c-23.695,0-42.904-19.209-42.904-42.904V61.419c0-23.695,19.209-42.904,42.904-42.904
		h133.86c23.695,0,42.904,19.209,42.904,42.904L237.833,195.279L237.833,195.279z"/>
</g>
<g id="Layer_7">
	<polyline fill="none" stroke="#FFCD00" stroke-width="6" stroke-miterlimit="10" points="59.657,130.168 45.841,130.168 
		45.612,130.168 45.612,95.796 209,95.796 209,129.856 197.094,129.856 	"/>
	<polygon fill="none" stroke="#FFCD00" stroke-width="4" stroke-miterlimit="10" points="174.187,150.25 83.155,150.25 83.155,122 
		83.155,110 174.187,110 174.187,123.5 	"/>
	<polyline fill="none" stroke="#FFCD00" stroke-width="4" stroke-miterlimit="10" points="180.616,124.75 188.75,124.75 188.75,172 
		68.592,172 68.592,124.75 75.954,124.75 	"/>
	<polyline fill="none" stroke="#FFCD00" stroke-width="4" stroke-miterlimit="10" points="174.187,115 181.387,115 181.387,160.75 
		75.955,160.75 75.955,115 83.155,115 	"/>
</g>
</svg>
