<?xml version="1.0" encoding="utf-8"?>
<!-- Generator: Adobe Illustrator 17.0.0, SVG Export Plug-In . SVG Version: 6.00 Build 0)  -->
<!DOCTYPE svg PUBLIC "-//W3C//DTD SVG 1.1//EN" "http://www.w3.org/Graphics/SVG/1.1/DTD/svg11.dtd">
<svg version="1.1" id="Layer_2" xmlns="http://www.w3.org/2000/svg" xmlns:xlink="http://www.w3.org/1999/xlink" x="0px" y="0px"
	 width="256px" height="256px" viewBox="0 0 256 256" enable-background="new 0 0 256 256" xml:space="preserve">
<path display="none" fill="#EA6D28" stroke="#FF9D00" stroke-width="7" stroke-miterlimit="10" d="M237.833,195.279
	c0,23.695-19.209,42.904-42.904,42.904H61.07c-23.695,0-42.904-19.209-42.904-42.904V61.419c0-23.695,19.209-42.904,42.904-42.904
	h133.86c23.695,0,42.904,19.209,42.904,42.904L237.833,195.279L237.833,195.279z"/>
<path fill="none" stroke="#FFCD00" stroke-width="4" stroke-miterlimit="10" d="M146.891,53.484c-1.495-0.795-3.201-0.57-4.845-0.61
	c-2.48-0.061-4.784-0.116-7.268-0.007c-12.908,0.565-25.786,5.088-35.733,13.469c-3.717,3.131-7.205,6.923-9.748,11.072
	c-0.669,1.092-2.452,3.372-1.231,4.62c1.284,1.313,4.098,0.014,5.528-0.378c3.932-1.077,8.163-0.976,12.113-0.038
	c5.122,1.216,9.291,3.597,13.021,7.303c0.947,0.941,2.867,3.267,4.416,2.17c1.154-0.818,1.499-3.035,1.96-4.289
	c1.207-3.288,2.65-6.482,4.049-9.69C132.875,68.573,138.847,58.515,146.891,53.484z M156.948,55.14
	c-3.31,0.625-6.205,3.288-8.475,5.612c-5.763,5.9-10.047,13.917-13.146,21.501c-1.024,2.505-2.062,4.997-2.908,7.571
	c-0.257,0.78-0.867,2.078-0.29,2.846c1.062,1.414,4.735-0.373,6.044-0.687c4.77-1.143,9.96-0.531,14.536,1.192
	c3.513,1.322,6.722,3.408,9.388,6.038c0.851,0.839,2.422,2.972,3.852,2.509c1.065-0.345,1.119-2.214,1.271-3.115
	c0.51-3.021,1.016-6.03,1.262-9.085c0.712-8.854,1.438-18.437-1.787-26.951C165.01,58.122,162.259,54.138,156.948,55.14
	 M172.364,58.329c3.8,9.14,4.516,18.965,3.582,28.768c-0.348,3.651-0.795,7.278-1.388,10.902c-0.223,1.36-1.059,3.469-0.496,4.8
	c0.386,0.914,1.379,0.969,2.239,0.861c2.35-0.295,4.595-1.199,6.965-1.507c7.102-0.923,14.95,1.867,20.289,6.532
	c1.175,1.027,4.198,5.325,6.135,3.363c0.91-0.922,0.567-3.179,0.516-4.359c-0.188-4.299-1.063-8.638-2.411-12.719
	c-4.192-12.689-12.853-23.352-23.923-30.735C180.572,62.036,176.32,59.035,172.364,58.329z M72.157,93.154
	c-0.989,2.089-1.86,4.236-2.771,6.359c-0.425,0.991-0.77,2.354-1.62,3.076c-0.76,0.646-1.946,0.808-2.877,1.076
	c-2.313,0.664-4.649,1.248-6.965,1.905c0.611,2.116,1.92,4.133,2.986,6.057c0.56,1.01,1.44,2.136,1.506,3.331
	c0.058,1.063-0.629,2.086-1.031,3.028c-0.948,2.221-1.939,4.429-2.855,6.662c2.218,0.418,4.437,0.857,6.662,1.236
	c1.08,0.184,2.594,0.24,3.516,0.88c0.852,0.591,1.312,1.851,1.807,2.729c1.185,2.102,2.242,4.275,3.46,6.359
	c1.819-1.266,3.483-2.822,5.148-4.286c0.904-0.795,1.845-1.879,3.028-2.249c1.034-0.324,2.298,0.073,3.331,0.252
	c2.314,0.402,4.612,1.034,6.965,1.136c-0.02-2.424-0.293-4.831-0.303-7.268c-0.004-0.972-0.245-2.138,0.234-3.028
	c1.038-1.927,3.585-3.47,5.216-4.885c0.561-0.487,1.755-2.08,1.755-2.08s-1.408-1.655-2.057-2.12
	c-1.717-1.23-4.333-2.57-5.571-4.295c-0.71-0.989-0.485-2.43-0.485-3.578c0-2.338-0.301-4.634-0.303-6.965
	c-2.196,0.702-4.437,1.26-6.662,1.863c-1.031,0.279-2.245,0.852-3.331,0.656c-1.128-0.204-2.135-1.14-3.028-1.8
	C76.038,95.819,74.18,94.307,72.157,93.154z M130.905,152.205c-5.371-0.015-10.666-0.461-16.05,0.051
	c-12.923,1.231-25.647,4.975-37.248,10.775c-4.017,2.008-7.868,4.223-11.507,6.866c-1.664,1.208-3.653,2.522-4.542,4.414
	c2.337,1.246,6.055,3.433,8.782,3.162c1.9-0.189,3.734-1.234,5.451-1.993c4.076-1.801,8.747-4.067,13.324-3.505
	c3.855,0.474,7.373,2.165,10.902,3.675c1.731,0.741,3.811,1.956,5.754,1.841c2.044-0.121,4.224-1.353,6.057-2.179
	c3.837-1.729,8.406-3.788,12.719-3.372c4.096,0.395,7.757,2.237,11.507,3.765c1.664,0.678,3.605,1.833,5.451,1.79
	c1.896-0.043,3.756-1.109,5.451-1.845c3.716-1.612,7.684-3.588,11.81-3.75c4.367-0.172,8.512,1.899,12.416,3.576
	c1.783,0.766,3.772,1.951,5.754,2.022c2.685,0.095,6.168-1.955,8.479-3.188c-1.74-3.721-7.198-6.318-10.599-8.358
	c-8.198-4.916-17.386-8.517-26.649-10.833c-3.405-0.852-7.077-1.934-10.599-2.007c3.172-13.837,7.556-27.433,11.092-41.184
	c0.834-3.242,1.804-6.45,2.647-9.69c0.255-0.979,1.151-2.77,0.306-3.635c-0.549-0.563-1.506-0.747-2.235-0.942
	c-0.947-0.253-2.561-0.906-3.463-0.258c-0.799,0.573-0.961,2.135-1.191,3.019c-0.659,2.529-1.375,5.044-2.043,7.571
	c-2.509,9.497-5.034,19.002-7.664,28.466C133.588,141.595,131.617,146.917,130.905,152.205z M77.305,102.932
	c1.33-0.157,2.656,0.081,3.937,0.442c9.32,2.628,10.84,15.517,2.725,20.527c-1.469,0.907-3.13,1.433-4.845,1.604
	c-11.297,1.126-16.692-13.586-7.873-20.38C72.997,103.777,75.142,103.187,77.305,102.932 M52.17,182.791v10.296
	c6.208,0.837,11.408,5.85,17.867,5.675c3.794-0.103,7.505-1.814,10.902-3.345c2.145-0.967,4.837-2.467,7.268-2.227
	c6.138,0.606,11.148,5.92,17.564,5.587c4.063-0.21,7.836-2.073,11.507-3.656c1.918-0.827,4.217-2.028,6.359-1.955
	c1.957,0.067,3.986,1.062,5.754,1.822c3.605,1.551,7.491,3.66,11.507,3.773c6.601,0.187,11.583-4.952,17.867-5.572
	c2.317-0.229,4.919,1.153,6.965,2.087c3.419,1.56,7.09,3.256,10.902,3.45c6.581,0.336,11.88-4.715,18.17-5.64V182.79
	c-3.472,0.01-6.852,1.082-9.993,2.516c-2.231,1.019-4.79,2.63-7.268,2.874c-2.162,0.213-4.455-1.121-6.359-1.989
	c-3.379-1.542-7.123-3.304-10.902-3.396c-4.346-0.107-8.174,1.336-12.113,3.024c-2.057,0.881-4.369,2.324-6.662,2.381
	c-2.41,0.06-5.105-1.633-7.268-2.556c-3.961-1.69-7.75-3.034-12.113-2.841c-3.886,0.172-7.69,2.127-11.205,3.622
	c-1.695,0.721-3.559,1.775-5.451,1.761c-2.282-0.016-4.619-1.491-6.662-2.367c-3.939-1.688-7.767-3.131-12.113-3.024
	c-3.664,0.09-7.318,1.76-10.599,3.257c-1.916,0.874-4.192,2.222-6.359,2.149c-1.999-0.067-3.958-1.31-5.754-2.079
	C60.157,184.483,56.405,182.802,52.17,182.791z"/>
</svg>
