<?xml version="1.0" encoding="utf-8"?>
<!-- Generator: Adobe Illustrator 17.0.0, SVG Export Plug-In . SVG Version: 6.00 Build 0)  -->
<!DOCTYPE svg PUBLIC "-//W3C//DTD SVG 1.1//EN" "http://www.w3.org/Graphics/SVG/1.1/DTD/svg11.dtd">
<svg version="1.1" id="Layer_2" xmlns="http://www.w3.org/2000/svg" xmlns:xlink="http://www.w3.org/1999/xlink" x="0px" y="0px"
	 width="256px" height="256px" viewBox="0 0 256 256" enable-background="new 0 0 256 256" xml:space="preserve">
<path display="none" fill="#EA6D28" stroke="#FF9D00" stroke-width="7" stroke-miterlimit="10" d="M237.833,195.279
	c0,23.695-19.209,42.904-42.904,42.904H61.07c-23.695,0-42.904-19.209-42.904-42.904V61.419c0-23.695,19.209-42.904,42.904-42.904
	h133.86c23.695,0,42.904,19.209,42.904,42.904L237.833,195.279L237.833,195.279z"/>
<path fill="none" stroke="#FFCD00" stroke-width="4" stroke-miterlimit="10" d="M88.822,72.563c-2.127-0.576-4.382-1.325-6.547-0.48
	c-2.402,0.937-4.012,3.282-5.31,5.333c-3.289,5.201-6.602,12.793-7.114,18.926c-0.216,2.584,2.225,4.213,1.87,6.794
	c-0.592,4.302-1.653,8.221-1.532,12.617c0.107,3.902,3.786,6.734,2.973,10.676c-1.054,5.109-5.431,9.841-8.355,14.073
	c-1.358,1.966-3.326,5.3-3.344,7.792c-0.029,4.02,6.63,3.939,9.725,4.34c-0.01,3.452,0.022,3.746-0.008,7.191l11.023,1
	c1.547,1.925-10.502,3.968-10.017,5.398c0.648,1.911,2.315,3.341,2.822,5.337c1.036,4.081-1.21,11.558,3.759,13.552
	c2.769,1.111,5.594,0.29,8.039-0.785c3.819-1.68,10.796-3.849,15.099-3.487c3.748,0.315,4.638,3.709,5.161,6.734
	c1.26,7.285-12.192,17.47-12.192,17.47s6.501,0,9.061,0h15.617h56.913c-1.688-2.209-6.043-3.793-7.96-5.824
	c-6.232-6.605-12.246-14.129-14.902-22.808c-1.004-3.282-1.911-7.273-1.036-10.674c0.882-3.428,4.417-3.123,7.288-4.185
	c11.977-1.056,13.202-7.121,10.076-14.259c3.695-1.303,7.139-1.07,10.076-3.912c4.001-3.871,7.391-6.896,8.399-12.588
	c0.792-4.479-4.151-7.187-3.678-11.162c0.556-4.667,4.081-8.664,3.789-13.588c-0.24-4.04-4.383-7.008-4.451-10.882
	c-0.047-2.668,1.243-5.369,1.438-8.044c0.57-7.831-1.396-15.179-5.71-21.838c-5.27-8.133-13.323-11.177-22.96-9.55
	c-3.284,0.555-6.754,2.449-10.076,2.494c-1.772,0.024-3.449-1.038-5.038-1.674c-3.059-1.226-6.247-2.49-9.572-2.833
	c-5.381-0.555-10.782,0.086-15.617,2.468c-2.532,1.248-4.912,3.443-7.557,4.361c-2.503,0.869-5.404-0.829-8.061-0.376
	C94.758,61.225,91.031,67.455,88.822,72.563z M149.285,86.636c0.769,0.751-2.075,2.356-2.978,3.103
	c-5.358,4.428-2.148,9.682-1.564,15.338c2.108-4.856,3.152-13.503,9.572-14.851c5.613-1.178,11.13,3.541,12.328,8.542
	c0.353,1.475,0.731,4.243-0.327,5.531c-1.148,1.397-4.327,0.697-5.955,0.924c-4.237,0.589-7.618,3.012-11.587,4.222
	c5.395,1.989,12.483,1.262,17.099,5.044c2.607,2.135,1.902,5.047,0.25,7.571c-2.586,3.952-7.175,6.348-11.808,7.281
	c-1.29-6.571-4.198-10.837-9.068-15.529c-0.18,4.034-1.624,8.064-0.875,12.132c0.423,2.301,1.923,4.221,2.89,6.309
	c-5.011,2.037-11.111,0.138-15.617-2.368c-1.939-1.078-4.2-2.576-4.438-4.911c-0.541-5.32,8.105-10.528,12.498-12.132
	c-5.503-1.552-14.475,0.631-18.136,4.853c-7.383-3.476-5.174-14.987,2.015-17.52c5.23-1.844,11.784,3.055,15.617,5.873
	c-3.212-4.524-7.515-10.568-13.602-10.706C127.517,85.139,142.75,80.25,149.285,86.636z M139.201,106.048l0.504,0.485
	L139.201,106.048z"/>
</svg>
