<?xml version="1.0" encoding="utf-8"?>
<!-- Generator: Adobe Illustrator 17.0.0, SVG Export Plug-In . SVG Version: 6.00 Build 0)  -->
<!DOCTYPE svg PUBLIC "-//W3C//DTD SVG 1.1//EN" "http://www.w3.org/Graphics/SVG/1.1/DTD/svg11.dtd">
<svg version="1.1" id="Layer_1" xmlns="http://www.w3.org/2000/svg" xmlns:xlink="http://www.w3.org/1999/xlink" x="0px" y="0px"
	 width="256px" height="256px" viewBox="0 0 256 256" enable-background="new 0 0 256 256" xml:space="preserve">
<g id="Layer_2" display="none">
	<path display="inline" fill="#EA6D28" stroke="#FF9D00" stroke-width="7" stroke-miterlimit="10" d="M237.833,195.279
		c0,23.695-19.209,42.904-42.904,42.904H61.07c-23.695,0-42.904-19.209-42.904-42.904V61.419c0-23.695,19.209-42.904,42.904-42.904
		h133.86c23.695,0,42.904,19.209,42.904,42.904L237.833,195.279L237.833,195.279z"/>
</g>
<g id="Layer_1_1_">
	<path fill="none" stroke="#FFCD00" stroke-width="4" stroke-miterlimit="10" d="M39.732,96.991v57.142
		c5.495,0.24,9.705,2.264,15.028,3.484c-0.628-4.965-0.247-10.566,2.846-14.934c6.299-8.897,19.947-6.663,24.657,3.088
		c1.939,4.014,1.312,7.613,0.978,11.846h85.804c-0.482-3.814-0.129-8.463,1.445-12.15c4.757-11.148,18.55-10.992,24.726-1.394
		c2.55,3.962,2.863,9.159,2.309,13.543c7.21-0.149,13.385-1.78,20.602-2.091c0-14.704,0.923-29.443-1.951-43.902
		c-0.672-3.382-1.597-10.66-4.441-12.918c-2.456-1.95-8.034-1.716-11.029-1.716h-32.752H39.732V96.991z M70.942,103.257v23.705
		H46.43v-23.705H70.942z M78.826,103.634c1.83-0.89,4.757-0.376,6.74-0.376h15.144c1.836,0,5.015-0.568,6.56,0.641
		c1.368,1.071,1.009,3.464,1.011,4.973c0.009,4.366,0.03,8.734-0.001,13.1c-0.011,1.569,0.236,3.788-1.462,4.615
		c-1.83,0.89-4.757,0.376-6.74,0.376H84.936c-1.836,0-5.015,0.569-6.56-0.641c-1.368-1.071-1.009-3.464-1.011-4.973
		c-0.009-4.366-0.03-8.734,0.001-13.1C77.376,106.678,77.128,104.46,78.826,103.634 M114.224,126.962v-16.219
		c0-1.815-0.535-4.958,0.603-6.486c1.172-1.573,4.206-1,5.851-1h15.841c1.644,0,4.679-0.573,5.851,1
		c1.138,1.527,0.603,4.67,0.603,6.486c0,0,0,13.09,0,16.219C142.972,126.963,114.224,126.962,114.224,126.962z M152.166,103.634
		c1.77-0.89,4.604-0.376,6.523-0.376h14.655c1.777,0,4.854-0.568,6.348,0.641c1.323,1.071,0.976,3.464,0.979,4.973
		c0.009,4.366,0.029,8.734-0.001,13.1c-0.011,1.569,0.229,3.788-1.415,4.615c-1.77,0.89-4.604,0.376-6.523,0.376h-14.655
		c-1.777,0-4.854,0.569-6.348-0.641c-1.323-1.071-0.976-3.464-0.979-4.973c-0.009-4.366-0.029-8.734,0.001-13.1
		C150.761,106.678,150.522,104.46,152.166,103.634 M206.436,103.257c1.043,8.02,3.325,15.439,4.4,23.705h-22v-23.705H206.436z
		 M47.701,133.228v6.272h-7.484v-6.272H47.701z M68.387,142.44c-8.794,0.768-12.275,12.851-4.036,17.275
		c1.866,1.003,4.276,1.102,6.348,0.832C81.799,159.097,79.353,141.483,68.387,142.44 M180.37,143.104
		c-11.107,3.483-5.822,21.183,5.237,17.864C197.482,157.404,192.16,139.407,180.37,143.104z"/>
</g>
</svg>
