<?xml version="1.0" encoding="utf-8"?>
<!-- Generator: Adobe Illustrator 17.0.0, SVG Export Plug-In . SVG Version: 6.00 Build 0)  -->
<!DOCTYPE svg PUBLIC "-//W3C//DTD SVG 1.1//EN" "http://www.w3.org/Graphics/SVG/1.1/DTD/svg11.dtd">
<svg version="1.1" id="Layer_1" xmlns="http://www.w3.org/2000/svg" xmlns:xlink="http://www.w3.org/1999/xlink" x="0px" y="0px"
	 width="256px" height="256px" viewBox="0 0 256 256" enable-background="new 0 0 256 256" xml:space="preserve">
<g id="Layer_2" display="none">
	<path display="inline" fill="#EA6D28" stroke="#FF9D00" stroke-width="7" stroke-miterlimit="10" d="M237.833,195.279
		c0,23.695-19.209,42.904-42.904,42.904H61.07c-23.695,0-42.904-19.209-42.904-42.904V61.419c0-23.695,19.209-42.904,42.904-42.904
		h133.86c23.695,0,42.904,19.209,42.904,42.904L237.833,195.279L237.833,195.279z"/>
</g>
<g id="Layer_1_1_" display="none">
	<path display="inline" fill="none" stroke="#FCFCFC" stroke-width="4" stroke-miterlimit="10" d="M55.561,151.526v22.682
		c0,0,12.873,9.195,40.153,9.195c32.184,0,40.153-9.195,40.153-9.195v-22.682"/>
	<g display="inline">
		<path fill="#FCFCFC" d="M75.844,141.804c-13.169,1.862-22.123,5.517-22.123,9.722c0,6.094,18.8,11.034,41.992,11.034
			c1.768,0,3.507-0.032,5.218-0.088l0,0L75.844,141.804z"/>
		<path fill="#FCFCFC" d="M137.706,151.526c0-6.094-18.8-11.034-41.992-11.034c-2.135,0-4.233,0.043-6.283,0.123l25.844,20.675
			C128.611,159.442,137.706,155.764,137.706,151.526z"/>
	</g>
	<path display="inline" fill="none" stroke="#FCFCFC" stroke-width="3" stroke-miterlimit="10" d="M96.524,117.153v12.961
		c0,0,7.356,5.254,22.945,5.254c18.391,0,22.945-5.254,22.945-5.254v-12.961"/>
	<g display="inline">
		<path fill="#FCFCFC" d="M108.114,111.598c-7.525,1.064-12.642,3.153-12.642,5.556c0,3.482,10.743,6.305,23.995,6.305
			c1.01,0,2.004-0.018,2.982-0.05l0,0L108.114,111.598z"/>
		<path fill="#FCFCFC" d="M143.464,117.153c0-3.482-10.743-6.305-23.995-6.305c-1.22,0-2.419,0.024-3.59,0.07l14.768,11.814
			C138.267,121.676,143.464,119.575,143.464,117.153z"/>
	</g>
	<g display="inline">
		<path fill="none" stroke="#FCFCFC" stroke-width="9" stroke-miterlimit="10" d="M159.774,126.538v37.555
			c0,10.665,8.645,19.31,19.31,19.31s19.31-8.645,19.31-19.31v-37.555H159.774z"/>
		<path fill="#FCFCFC" d="M203.112,89.16c0-13.27-10.757-24.027-24.027-24.027S155.058,75.89,155.058,89.16v41.24h48.054
			L203.112,89.16L203.112,89.16z"/>
	</g>
	<path display="inline" fill="#FFFFFF" d="M47.883,72.064c-1.096,2.783-1.779,5.736-2.407,8.649
		c3.787,1.022,7.617,1.894,11.433,2.81c1.852,0.444,4.217,0.703,5.595,2.099c1.852,1.875,2.537,5.401,3.462,7.777
		c2.248,5.778,4.573,11.528,6.844,17.298c7.934,20.155,16.823,40.131,23.998,60.544c1.361,3.873-1.045,5.674-2.114,9.226
		c-1.63,5.412,0.251,11.493,4.995,14.864c5.72,4.065,14.006,3.941,19.09-1.086c1.891-1.87,2.836-5.934,5.592-6.675
		c2.689-0.723,6.184-0.183,8.961-0.183h18.654c2.669,16.984,30.723,12.179,27.994-4.613c-0.321-1.972-1.011-4.067-2.116-5.766
		c-3.882-5.969-12.888-7.96-19.257-4.571c-2.807,1.493-4.598,5.132-7.849,5.638c-6.097,0.95-13.054,0.085-19.233,0.085
		c-2.73,0-6.419,0.607-9.003-0.348c-2.64-0.976-4.17-3.842-6.643-5.207c-2.408-1.33-6.131-1.25-8.003-3.276
		c-2.394-2.591-3.112-7.082-4.633-10.198h81.838c3.404-14.226,7.141-28.396,10.356-42.669c1.585-7.037,4.081-14.099,4.086-21.335
		c-3.208-0.634-6.353-1.48-9.628-1.73c-1.899,13.509-6.235,27.073-9.418,40.363c-1.182,4.936-2.799,9.931-3.219,14.992H119.49
		h-14.442c-1.779-0.001-4.179,0.348-5.597-0.924c-1.437-1.29-1.974-3.706-2.636-5.418c-1.342-3.473-2.785-6.913-4.149-10.379
		L77.624,93.975l-4.583-11.532c-0.598-1.512-0.993-3.576-2.197-4.77c-1.554-1.54-4.65-1.626-6.713-2.081
		C58.725,74.401,53.313,73.138,47.883,72.064 M96.023,109.543c0,2.209-1.038,7.69,0.965,9.21c1.474,1.119,4.505,0.593,6.256,0.593
		h15.044h58.972v-9.802L96.023,109.543 M107.456,128.572v9.802h62.582v-9.802H107.456z"/>
</g>
<g id="Layer_4" display="none">
	<path display="inline" fill="#FFFFFF" d="M76.919,63.095v116.65H62.68v9.858h106.792v-9.858h-13.691v-67.361
		c9.658,0.287,8.215,10.622,8.215,17.525v20.263c0,9.607,0.01,19.097,10.405,23.44c8.84,3.693,19.874-1.199,22.944-10.296
		c1.901-5.633,1.153-12.225,1.153-18.072v-31.216c0-3.944-1.128-9.952,0.33-13.642c0.914-2.312,4.714-3.732,3.141-6.621
		c-1.358-2.493-4.22-4.582-6.209-6.572l-12.596-12.596c-1.635-1.635-4.582-5.911-7.119-5.911c-2.373,0-5.352,3.923-7.119,5.363
		c2.37,3.376,5.543,6.245,8.308,9.31c1.037,1.15,3.154,2.669,3.163,4.381c0.014,2.924-4.989,4.508-4.164,7.667
		c0.398,1.525,2.042,2.743,3.077,3.834c2.735,2.882,6.997,6.316,8.768,9.858c1.275,2.55,0.563,6.53,0.563,9.31v20.263
		c0,3.68-0.53,7.289-0.547,10.953c-0.014,2.76,0.511,6.114-0.386,8.762c-1.226,3.619-5.151,6.284-8.925,4.846
		c-6.267-2.389-4.929-9.916-4.929-15.251V124.98c0-4.308,0.502-8.949-0.635-13.144c-2.182-8.056-9.595-11.725-17.438-9.858V63.095
		H76.919 M144.28,75.144v45.455H87.872V75.144H144.28z"/>
</g>
<g id="Layer_5" display="none">
	<path display="inline" fill="#FCFCFC" d="M95.992,156.555c3.799-0.96,7.061-3.119,9.675-6.05c2.193-2.459,4.356-6.454,8.293-5.612
		c3.482,0.743,6.312,5.241,8.65,7.669c1.101,1.143,2.528,2.372,2.893,3.994c0.708,3.144-2.113,7.278-2.102,10.65
		c0.035,10.762,9.822,19.896,20.514,19.24c14.656-0.9,23.281-17.543,15.329-29.889c-3.807-5.911-9.806-8.604-16.661-8.649
		c-7.204-0.049-11.585,3.157-17.164-3.334c-5.033-5.856-7.789-14.976-10.997-21.962c-4.818-10.494-10.079-20.788-14.898-31.283
		C96.469,84.676,93.691,77.686,90,71.361c-9.357,4.376-7.064,13.563-4.269,21.299c4.08,11.292,8.025,22.634,12.051,33.945
		c1.32,3.709,5.088,10.009,4.053,13.978c-1.099,4.21-6.824,8.94-11.169,9.133c-2.355,0.105-4.404-1.112-6.656-1.559
		c-4.926-0.977-10.35-0.224-14.643,2.364c-7.729,4.659-11.187,14.174-8.188,22.677c5.46,15.48,26.949,17.837,35.238,3.327
		C100.048,170.168,98.961,162.881,95.992,156.555 M134.596,71.359c-5.034,8.625-8.687,18.219-12.852,27.289
		c-1.532,3.336-4.529,7.482-4.158,11.315c0.573,5.914,5.901,11.647,7.692,17.306c3.651-2.499,4.832-9.894,6.212-13.978
		c2.336-6.915,5.005-13.71,7.322-20.634c1.008-3.012,2.66-6.136,2.973-9.318C142.279,78.319,139.203,73.183,134.596,71.359
		 M153.233,72.69v51.251v12.646c0.004,1.882-0.233,4.046,1.067,5.585c2.048,2.424,7.296,6.252,10.248,7.326
		c2.92,1.063,6.916,0.401,9.984,0.401H194.5v-7.322h-31.949v-4.659H194.5v-7.322h-31.949c0.4-5.244,4.358-4.659,8.653-4.659H194.5
		v-7.322h-31.949c0.4-5.244,4.358-4.659,8.653-4.659H194.5v-7.322h-31.949v-3.994H194.5v-7.32h-23.296
		c-4.295,0-8.253,0.585-8.653-4.659H194.5V83.34h-23.296c-4.295,0-8.253,0.585-8.653-4.659H194.5v-5.99L153.233,72.69
		 M167.211,154.559l1.997,7.322H194.5v-7.322H167.211 M76.689,156.834c13.246-3.295,18.68,17.09,5.325,20.309
		C69.057,180.265,63.552,160.102,76.689,156.834 M141.252,156.775c13.269-2.305,16.579,18.14,3.328,20.6
		C131.358,179.831,127.957,159.085,141.252,156.775 M169.873,166.539l-0.666,7.322H194.5v-7.322H169.873 M163.883,184.51H194.5
		v-6.656h-19.302c-2.201,0-5.651-0.631-7.566,0.684C165.803,179.795,164.697,182.545,163.883,184.51z"/>
</g>
<g id="Layer_6">
	<g>
		<path fill="none" stroke="#FFCD00" stroke-width="4" stroke-miterlimit="10" d="M133.83,55.335
			c-6.491-5.207-14.509,0.332-16.776,7.119c-1.535,4.593-0.848,16.591-0.813,21.419c0.047,6.488-0.261,12.954-0.209,19.437
			c0.023,2.865-0.489,6.407,0.451,9.154c1.44,4.207,7.32,5.683,8.025,10.329c0.816,5.385,0.208,11.306,0.252,16.75l0.262,32.268
			l0.149,18.334c0.041,4.58,0.641,9.861,5.338,12.211c2.821,1.412,5.458-3.394,5.844-5.574c1.302-7.334,0.111-15.789,0.051-23.23
			l-0.684-84.337l-0.167-26.021C135.532,60.614,136.09,57.148,133.83,55.335 M82.735,55.676c-1.108,3.056-0.316,7.38-0.548,10.606
			c-0.408,5.686,1.677,21.246-1.802,26.005c-1.741-8.2-1.497-28.809-4.561-36.611c-1.47,3.382-1.629,9.393-2.167,13.021
			c-0.818,5.515-1.097,18.577-1.691,24.12c-3.018-4.432-2.129-19.948-2.812-26.086c-0.351-3.148,0.369-8.19-1.081-11.055
			c-1.844,2.525-2.952,7.22-4.069,10.124c-1.323,3.44-3.728,23.169-2.281,26.926c0.809,2.1,1.907,4.46,3.405,6.151
			c1.573,1.775,5.527,3.172,6.015,5.632c1.217,6.139,0.944,19.566,0.994,25.823l-1.736,39.602
			c0.069,8.563-0.772,17.721,0.407,26.206c0.348,2.503,2.04,7.286,5.158,7.622c3.013,0.325,5.2-5.439,5.496-7.668
			c1.155-8.687,0.006-18.22-0.065-26.982l-2.367-38.135c-0.052-6.367,0.428-19.552,1.33-25.856c0.395-2.759,3.388-3.331,5.261-4.957
			c2.047-1.777,3.551-3.976,4.456-6.528C92.737,86.136,85.96,61.896,82.735,55.676z"/>
		<path fill="#FFFFFF" stroke="#FFCD00" stroke-width="4" stroke-miterlimit="10" d="M189.115,60.012
			c-3.328-6.697-11.215-7.46-14.661,0.167c-1.844,2.525-2.952,6.147-4.069,9.05c-3.151,8.191-5.558,18.418-2.281,26.926
			c0.809,2.1,1.907,4.46,3.405,6.151c1.573,1.775,4.156,3.172,4.644,5.632c3.118,6.336,3.007,14.048,3.052,19.65l-2.422,39.602
			c0.069,8.563-0.772,17.721,0.407,26.206c0.348,2.503,2.04,7.286,5.158,7.622c3.013,0.325,5.2-5.439,5.496-7.668
			c1.155-8.687,0.006-18.22-0.065-26.982l-2.367-38.135c-0.052-6.409-1.339-12.93,2.016-19.684c0.395-2.759,2.016-3.331,3.889-4.957
			c2.047-1.777,3.551-3.976,4.456-6.528C199.917,85.377,194.513,70.42,189.115,60.012 M187.135,87.164"/>
	</g>
</g>
<g id="Layer_3">
</g>
</svg>
