<?xml version="1.0" encoding="utf-8"?>
<!-- Generator: Adobe Illustrator 17.0.0, SVG Export Plug-In . SVG Version: 6.00 Build 0)  -->
<!DOCTYPE svg PUBLIC "-//W3C//DTD SVG 1.1//EN" "http://www.w3.org/Graphics/SVG/1.1/DTD/svg11.dtd">
<svg version="1.1" id="Layer_1" xmlns="http://www.w3.org/2000/svg" xmlns:xlink="http://www.w3.org/1999/xlink" x="0px" y="0px"
	 width="256px" height="256px" viewBox="0 0 256 256" enable-background="new 0 0 256 256" xml:space="preserve">
<g id="Layer_2" display="none">
	<path display="inline" fill="#EA6D28" stroke="#FF9D00" stroke-width="7" stroke-miterlimit="10" d="M237.833,195.279
		c0,23.695-19.209,42.904-42.904,42.904H61.07c-23.695,0-42.904-19.209-42.904-42.904V61.419c0-23.695,19.209-42.904,42.904-42.904
		h133.86c23.695,0,42.904,19.209,42.904,42.904L237.833,195.279L237.833,195.279z"/>
</g>
<g id="Layer_4">
	<path fill="none" stroke="#FFCD00" stroke-width="4" stroke-miterlimit="10" d="M76.919,63.095v116.65H62.68v9.858h106.792v-9.858
		h-13.691v-67.361c9.658,0.287,8.215,10.622,8.215,17.525v20.263c0,9.607,0.01,19.097,10.405,23.44
		c8.84,3.693,19.874-1.199,22.944-10.296c1.901-5.633,1.153-12.225,1.153-18.072v-31.216c0-3.944-1.128-9.952,0.33-13.642
		c0.914-2.312,4.714-3.732,3.141-6.621c-1.358-2.493-4.22-4.582-6.209-6.572l-12.596-12.596c-1.635-1.635-4.582-5.911-7.119-5.911
		c-2.373,0-5.352,3.923-7.119,5.363c2.37,3.376,5.543,6.245,8.308,9.31c1.037,1.15,3.154,2.669,3.163,4.381
		c0.014,2.924-4.989,4.508-4.164,7.667c0.398,1.525,2.042,2.743,3.077,3.834c2.735,2.882,6.997,6.316,8.768,9.858
		c1.275,2.55,0.563,6.53,0.563,9.31v20.263c0,3.68-0.53,7.289-0.547,10.953c-0.014,2.76,0.511,6.114-0.386,8.762
		c-1.226,3.619-5.151,6.284-8.925,4.846c-6.267-2.389-4.929-9.916-4.929-15.251V124.98c0-4.308,0.502-8.949-0.635-13.144
		c-2.182-8.056-9.595-11.725-17.438-9.858V63.095H76.919 M144.28,75.144v45.455H87.872V75.144H144.28z"/>
</g>
</svg>
