<?xml version="1.0" encoding="utf-8"?>
<!-- Generator: Adobe Illustrator 17.0.0, SVG Export Plug-In . SVG Version: 6.00 Build 0)  -->
<!DOCTYPE svg PUBLIC "-//W3C//DTD SVG 1.1//EN" "http://www.w3.org/Graphics/SVG/1.1/DTD/svg11.dtd">
<svg version="1.1" id="Layer_1" xmlns="http://www.w3.org/2000/svg" xmlns:xlink="http://www.w3.org/1999/xlink" x="0px" y="0px"
	 width="256px" height="256px" viewBox="0 0 256 256" enable-background="new 0 0 256 256" xml:space="preserve">
<g id="Layer_2" display="none">
	<path display="inline" fill="#EA6D28" stroke="#FF9D00" stroke-width="7" stroke-miterlimit="10" d="M237.833,195.279
		c0,23.695-19.209,42.904-42.904,42.904H61.07c-23.695,0-42.904-19.209-42.904-42.904V61.419c0-23.695,19.209-42.904,42.904-42.904
		h133.86c23.695,0,42.904,19.209,42.904,42.904L237.833,195.279L237.833,195.279z"/>
</g>
<g id="Layer_1_1_">
	<g>
		<polygon fill="none" stroke="#FFCD00" stroke-width="4" stroke-miterlimit="10" points="142.667,87.94 118.333,87.94 
			118.333,116.333 89.942,116.333 89.942,140.667 118.333,140.667 118.333,169.055 142.667,169.055 142.667,140.667 
			171.058,140.667 171.058,116.333 142.667,116.333 		"/>
		<path fill="none" stroke="#FFCD00" stroke-width="4" stroke-miterlimit="10" d="M130.5,52.5c-41.973,0-76,34.024-76,76
			c0,41.971,34.027,76,76,76s76-34.029,76-76C206.5,86.524,172.473,52.5,130.5,52.5z M130.5,192.625
			c-35.359,0-64.125-28.768-64.125-64.125c0-35.361,28.766-64.125,64.125-64.125s64.125,28.764,64.125,64.125
			C194.625,163.857,165.859,192.625,130.5,192.625z"/>
	</g>
</g>
</svg>
