<?xml version="1.0" encoding="utf-8"?>
<!-- Generator: Adobe Illustrator 17.0.0, SVG Export Plug-In . SVG Version: 6.00 Build 0)  -->
<!DOCTYPE svg PUBLIC "-//W3C//DTD SVG 1.1//EN" "http://www.w3.org/Graphics/SVG/1.1/DTD/svg11.dtd">
<svg version="1.1" id="Layer_1" xmlns="http://www.w3.org/2000/svg" xmlns:xlink="http://www.w3.org/1999/xlink" x="0px" y="0px"
	 width="256px" height="256px" viewBox="0 0 256 256" enable-background="new 0 0 256 256" xml:space="preserve">
<g id="Layer_2" display="none">
	<path display="inline" fill="#EA6D28" stroke="#FF9D00" stroke-width="7" stroke-miterlimit="10" d="M237.833,195.279
		c0,23.695-19.209,42.904-42.904,42.904H61.07c-23.695,0-42.904-19.209-42.904-42.904V61.419c0-23.695,19.209-42.904,42.904-42.904
		h133.86c23.695,0,42.904,19.209,42.904,42.904L237.833,195.279L237.833,195.279z"/>
</g>
<g id="Layer_1_1_">
	<path fill="none" stroke="#FFCD00" stroke-width="4" stroke-miterlimit="10" d="M93.954,57.676
		c-4.965,0.876-9.902,2.986-13.484,6.62c-14.774,14.985-1.229,41.622,19.665,37.928c11.033-1.95,18.686-10.675,19.001-21.965
		C119.495,67.403,106.932,55.387,93.954,57.676 M148.166,57.677c-3.971,0.713-7.887,2.26-11.07,4.756
		c-18.059,14.16-4.721,43.864,17.869,39.791c3.485-0.628,7.095-2.087,9.89-4.281c14.517-11.397,9.748-34.679-8.035-39.539
		C153.952,57.62,151.126,57.145,148.166,57.677 M210.067,104.129c-10.949,6.371-21.568,22.92-27.815,22.925
		c0-4.612,1.045-14.592-3.735-17.244c-2.401-1.332-5.366-0.972-8.009-0.972h-16.071h-58.72H80.265c-2.514,0-5.663-0.487-8.011,0.58
		c-2.961,1.346-4.173,2.402-4.327,5.456c-0.804,15.983-0.025,32.207-0.025,48.212c0,4.863-1.627,12.397,2.611,15.903
		c2.382,1.971,5.631,1.64,8.515,1.64h16.689h59.956h15.453c2.669,0,5.631,0.305,7.97-1.242c5.532-3.658,3.155-19.874,3.155-25.628
		c11.346,0.001,18.511,16.935,27.815,22.307v-57.937L210.067,104.129z M52.568,109.273c-2.033,0.917-3.26,2.833-3.603,4.985
		c-0.757,4.743-0.132,10.033-0.132,14.832c0,2.727-0.485,6.016,0.318,8.651c0.992,3.257,4.463,5.132,7.708,3.87
		c2.211-0.86,3.396-2.824,3.651-5.104c0.541-4.834,0.067-9.971,0.067-14.835c0-2.719,0.492-6.02-0.318-8.644
		C59.281,109.857,55.706,107.857,52.568,109.273z"/>
</g>
</svg>
