<?xml version="1.0" encoding="utf-8"?>
<!-- Generator: Adobe Illustrator 17.0.0, SVG Export Plug-In . SVG Version: 6.00 Build 0)  -->
<!DOCTYPE svg PUBLIC "-//W3C//DTD SVG 1.1//EN" "http://www.w3.org/Graphics/SVG/1.1/DTD/svg11.dtd">
<svg version="1.1" id="Layer_1" xmlns="http://www.w3.org/2000/svg" xmlns:xlink="http://www.w3.org/1999/xlink" x="0px" y="0px"
	 width="256px" height="256px" viewBox="0 0 256 256" enable-background="new 0 0 256 256" xml:space="preserve">
<g id="Layer_2" display="none">
	<path display="inline" fill="#EA6D28" stroke="#FF9D00" stroke-width="7" stroke-miterlimit="10" d="M237.833,195.279
		c0,23.695-19.209,42.904-42.904,42.904H61.07c-23.695,0-42.904-19.209-42.904-42.904V61.419c0-23.695,19.209-42.904,42.904-42.904
		h133.86c23.695,0,42.904,19.209,42.904,42.904L237.833,195.279L237.833,195.279z"/>
</g>
<g id="Layer_6">
	<path fill="none" stroke="#FFCD00" stroke-width="4" stroke-miterlimit="10" d="M125.467,54.698
		c-4.973,10.454-14.36,11.801-24.727,11.801c-0.404,8.839-8.281,15.543-16.859,16.297c1.847,3.375,6.399,5.408,9.553,7.492
		c1.304,0.862,2.836,1.166,4.496,1.101c3.147-0.123,7.221-3.619,10.115-4.922c5.163-2.326,11.206-2.616,16.859-2.898
		c7.099-0.354,14.812,0.412,21.355,3.063c2.863,1.16,7.617,5.021,10.677,4.714c1.509-0.151,2.803-0.465,3.934-1.356
		c2.393-1.887,7.306-6.631,7.306-6.631c-8.885-2.571-16.075-7.568-16.859-17.421c-8.945-0.074-19.974-3.04-24.727-11.239
		L125.467,54.698z M126.082,66.438c4.725-1.254,5.989,9.762,1.184,10.866C122.625,78.369,121.372,67.688,126.082,66.438
		 M99.054,98.16c1.675,3.589,5.163,5.937,8.43,8.037c10.882,6.996,23.82,6.81,35.404,1.592c4.396-1.98,10.255-5.147,12.363-9.629
		C142.294,90.237,112.135,90.525,99.054,98.16z M96.806,104.656c-1.495,6.536-2.238,12.435-0.871,19.107
		c4.593,22.428,32.588,32.383,50.886,19.551c13.261-9.299,16.594-25.049,11.801-39.782c-5.923,7.067-5.923,7.067-9.677,9.13
		c-10.936,6.01-24.449,8.683-36.404,3.854C106.632,114.13,102,111,96.806,104.656z M69.27,199h117.451
		c0-15.188,0.995-30.987-11.804-41.901c-2.414-2.058-5.009-3.853-7.865-5.243c-3.139-1.528-7.115-3.275-10.677-3.275
		c-3.468-0.001-7.03,3.312-10.115,4.726c-5.554,2.545-11.856,4.087-17.983,4.107c-6.295,0.02-12.825-1.488-18.545-4.107
		c-3.087-1.413-6.646-4.727-10.115-4.726c-3.745,0.001-7.992,1.956-11.239,3.654c-2.784,1.455-5.47,3.281-7.772,5.425
		C68.516,168.923,69.27,183.856,69.27,199z M155.813,166.968c1.194,2.046,2.132,5.383,4.153,6.736
		c1.913,1.28,4.914,1.033,7.086,1.693c-1.415,2.009-3.928,3.814-4.696,6.182c-0.702,2.161,0.355,5.139,0.763,7.306
		c-2.445-0.56-4.787-2.655-7.306-2.655c-2.457-0.001-4.957,1.979-7.306,2.655c0.1-2.329,1.344-5.576,0.366-7.772
		c-0.962-2.159-3.484-3.765-4.862-5.715c2.346-0.713,5.69-0.416,7.648-2.023C153.594,171.787,154.228,168.881,155.813,166.968z"/>
</g>
</svg>
