<?xml version="1.0" encoding="utf-8"?>
<!-- Generator: Adobe Illustrator 17.0.0, SVG Export Plug-In . SVG Version: 6.00 Build 0)  -->
<!DOCTYPE svg PUBLIC "-//W3C//DTD SVG 1.1//EN" "http://www.w3.org/Graphics/SVG/1.1/DTD/svg11.dtd">
<svg version="1.1" id="Layer_2" xmlns="http://www.w3.org/2000/svg" xmlns:xlink="http://www.w3.org/1999/xlink" x="0px" y="0px"
	 width="256px" height="256px" viewBox="0 0 256 256" enable-background="new 0 0 256 256" xml:space="preserve">
<path display="none" fill="#EA6D28" stroke="#FF9D00" stroke-width="7" stroke-miterlimit="10" d="M237.833,195.279
	c0,23.695-19.209,42.904-42.904,42.904H61.07c-23.695,0-42.904-19.209-42.904-42.904V61.419c0-23.695,19.209-42.904,42.904-42.904
	h133.86c23.695,0,42.904,19.209,42.904,42.904L237.833,195.279L237.833,195.279z"/>
<path fill="none" stroke="#FFCD00" stroke-width="4" stroke-miterlimit="10" d="M43.109,58.641
	c-1.188,3.149-1.929,6.489-2.609,9.785c4.106,1.157,8.257,2.143,12.395,3.179c2.008,0.503,4.571,0.796,6.065,2.374
	c2.008,2.121,2.75,6.11,3.753,8.798c2.437,6.537,4.957,13.043,7.419,19.57c8.601,22.803,18.237,45.402,26.015,68.496
	c1.476,4.382-1.133,6.42-2.292,10.438c-1.767,6.123,0.272,13.003,5.415,16.817c6.2,4.599,15.184,4.458,20.695-1.229
	c2.05-2.116,3.074-6.714,6.062-7.552c2.915-0.818,6.703-0.207,9.715-0.207h20.223c2.893,19.215,33.306,13.779,30.348-5.219
	c-0.348-2.231-1.096-4.602-2.294-6.523c-4.209-6.753-13.972-9.006-20.876-5.171c-3.043,1.69-4.985,5.806-8.509,6.379
	c-6.61,1.074-14.151,0.097-20.85,0.097c-2.96,0-6.959,0.686-9.76-0.393c-2.862-1.104-4.521-4.347-7.202-5.891
	c-2.61-1.504-6.647-1.414-8.676-3.706c-2.595-2.931-3.374-8.012-5.022-11.537h88.719c3.69-16.095,7.741-32.125,11.227-48.273
	c1.718-7.961,3.05-14.257,5.429-26.094c-4.249,0-6.004,0-11.438,0c-2.854,15.545-13.244,56.899-13.699,62.625h-62.625h-15.656
	c-1.929-0.001-4.531,0.393-6.067-1.046c-1.558-1.459-2.14-4.193-2.858-6.13c-1.455-3.93-3.019-7.821-4.498-11.742L75.351,83.43
	l-4.968-13.047c-0.649-1.71-1.076-4.046-2.382-5.396c-1.685-1.742-5.041-1.84-7.278-2.354
	C54.863,61.286,48.996,59.856,43.109,58.641z"/>
<path fill="none" stroke="#FFCD00" stroke-width="4" stroke-miterlimit="10" d="M99.297,101.044c0,2.499,0,11.089,0,11.089h20.137
	h61.93v-11.09L99.297,101.044L99.297,101.044z"/>
<rect x="107.691" y="122.571" fill="none" stroke="#FFCD00" stroke-width="4" stroke-miterlimit="10" width="67.844" height="11.09"/>
</svg>
