<?xml version="1.0" encoding="utf-8"?>
<!-- Generator: Adobe Illustrator 17.0.0, SVG Export Plug-In . SVG Version: 6.00 Build 0)  -->
<!DOCTYPE svg PUBLIC "-//W3C//DTD SVG 1.1//EN" "http://www.w3.org/Graphics/SVG/1.1/DTD/svg11.dtd">
<svg version="1.1" id="Layer_1" xmlns="http://www.w3.org/2000/svg" xmlns:xlink="http://www.w3.org/1999/xlink" x="0px" y="0px"
	 width="256px" height="256px" viewBox="0 0 256 256" enable-background="new 0 0 256 256" xml:space="preserve">
<path fill="none" stroke="#FFCD00" stroke-width="4" stroke-miterlimit="10" d="M99.893,81.832
	c-6.443,0.856-12.533,1.922-18.47,4.735c-18.465,8.748-29.57,27.99-34.624,47.123c-1.594,6.035-3.186,12.241-3.786,18.47
	c-0.199,2.061-0.712,5.609,1.151,7.084c2.033,1.61,5.939,0.947,8.349,0.947h20.879h56.214c9.019,0,19.193,1.327,28.092-0.119
	c6.265-1.019,4.031-12.107,4.031-16.745V99.962c0-4.231,1.648-12.922-0.826-16.516c-2.472-3.591-11.456-1.954-15.236-1.954
	C130.723,81.492,114.706,79.864,99.893,81.832 M230.791,160.994V125.66c-4.037,0-11.729,1.47-15.003-1.287
	c-1.775-1.495-1.817-3.806-1.857-5.94c-0.091-4.813-0.036-9.641-0.003-14.455c0.016-2.352-0.123-5.072,1.861-6.743
	c3.273-2.758,10.966-1.288,15.003-1.288V82.295h-45.774c-4.045,0-13.067-1.677-16.38,0.947c-2.926,2.317-1.287,11.721-1.287,15.114
	v44.971c0,3.918-1.846,14.368,1.861,16.842c3.827,2.555,12.936,0.826,17.412,0.826H230.791 M91.147,96.295
	c5.323-1.639,12.835-0.386,18.383-0.348c1.942,0.013,4.438-0.215,5.94,1.287c1.662,1.663,1.283,4.608,1.287,6.743
	c0.01,5.083,0.092,10.176-0.004,15.258c-0.043,2.306-0.088,4.876-2.524,5.94c-4.944,2.158-13.799,0.52-19.154,0.483
	c-2.188-0.015-4.899,0.21-6.281-1.861c-1.286-1.927-0.943-4.777-0.947-6.972c-0.008-5.055-0.285-10.209,0.035-15.255
	C88.035,99.171,88.627,97.071,91.147,96.295 M125.71,96.431c4.944-2.158,13.8-0.521,19.154-0.484
	c2.188,0.015,5.015-0.218,6.402,1.861c1.259,1.886,0.825,4.828,0.826,6.972c0.002,4.815,0.087,9.641-0.004,14.455
	c-0.043,2.306-0.088,4.876-2.524,5.94c-4.944,2.158-13.8,0.52-19.154,0.483c-2.188-0.015-5.015,0.218-6.402-1.861
	c-1.259-1.886-0.825-4.828-0.826-6.972c-0.002-4.815-0.087-9.641,0.004-14.455C123.229,100.065,123.274,97.494,125.71,96.431
	 M180.317,96.431c4.944-2.158,13.8-0.521,19.154-0.484c2.188,0.015,4.899-0.21,6.281,1.861c1.286,1.928,0.943,4.777,0.947,6.972
	c0.008,4.81,0.139,9.647-0.012,14.455c-0.071,2.255-0.231,4.88-2.58,5.94c-4.85,2.186-13.809,0.52-19.09,0.483
	c-2.188-0.015-5.015,0.218-6.402-1.861c-1.259-1.886-0.825-4.828-0.826-6.972c-0.002-4.815-0.087-9.641,0.004-14.455
	C177.837,100.065,177.882,97.494,180.317,96.431 M25.209,167.418c0.75,4.756,4.898,7.632,9.637,7.986
	c12.699,0.95,25.809,0.044,38.547,0.044h157.399v-8.031H25.209z"/>
</svg>
